<?xml version="1.0" encoding="utf-8"?>
<!-- Generator: Adobe Illustrator 24.2.2, SVG Export Plug-In . SVG Version: 6.00 Build 0)  -->
<svg version="1.1" id="Layer_1" xmlns="http://www.w3.org/2000/svg" xmlns:xlink="http://www.w3.org/1999/xlink" x="0px" y="0px"
	 viewBox="0 0 374 121" style="enable-background:new 0 0 374 121;" xml:space="preserve">
<style type="text/css">
	.st0{fill:#49BF3C;}
	.st1{fill:#0C200A;}
	.st2{fill:#FFFFFF;}
</style>
<polygon class="st0" points="69.8,0 0,0 10.5,60.2 0,120 69.8,120 79.8,60.9 "/>
<path class="st1" d="M55.3,46.5l1.9,1.1L65.8,37c0,0-1.7,0.3-4.1,0.7L60,27.6c-0.7-4.2-2.2-7.3-4.3-9.5c-0.1-0.1-0.2-0.2-0.4-0.4
	c-0.1,0-0.1-0.1-0.1-0.1c-0.1-0.1-0.2-0.2-0.4-0.3c0,0-0.1-0.1-0.1-0.1c-0.3-0.2-0.5-0.4-0.8-0.6c-2.3-1.4-5.1-2.1-8.7-2.1h-8
	c-9.8,0-14.7,5.2-14.7,15.6v25.8h0v17.3h0v18c0,10.4,4.9,15.6,14.7,15.6h8c3.6,0,6.5-0.7,8.7-2.1c0.3-0.2,0.6-0.4,0.8-0.6
	c0,0,0.1-0.1,0.1-0.1c0.1-0.1,0.2-0.2,0.4-0.3c0.1,0,0.1-0.1,0.1-0.1c0.1-0.1,0.2-0.2,0.4-0.4c2.1-2.1,3.5-5.2,4.3-9.5l1.8-10.1
	c2.4,0.4,4.1,0.7,4.1,0.7l-8.6-10.7l-1.9,1.1l-9.9,5.9c0.3,0,1.9,0.3,4.2,0.7L48,90.8c-0.2,1.4-0.8,2.5-1.5,3.2l0,0
	c-0.9,1.2-2.4,1.7-4.5,1.7h-2.4c-3.2,0-4.9-1.8-4.9-5.4V73.2h0V55.9h0V31.1c0-3.6,1.6-5.4,4.9-5.4H42c2.1,0,3.6,0.6,4.5,1.7l0,0
	c0.7,0.7,1.2,1.8,1.5,3.2l1.6,9.2c-2.2,0.4-3.9,0.7-4.2,0.7L55.3,46.5z"/>
<g>
	<polygon class="st2" points="172.7,105.8 172.7,94.6 155.8,94.6 155.6,13.7 143.3,13.7 143.5,105.8 	"/>
	<polygon class="st2" points="209,105.7 209,94.5 192.1,94.5 191.9,13.6 179.5,13.7 179.8,105.7 	"/>
	
		<rect x="216" y="13.5" transform="matrix(1 -2.510260e-03 2.510260e-03 1 -0.1489 0.5577)" class="st2" width="12.3" height="92.1"/>
	<polygon class="st2" points="320.1,105.4 320,94.2 301.8,94.3 301.8,63.6 317.9,63.6 317.9,52.4 301.7,52.5 301.7,24.5 319.9,24.5 
		319.8,13.3 289.3,13.4 289.6,105.5 	"/>
	<path class="st2" d="M263.9,105.5c9.8,0,14.7-4.5,14.7-13.4l-0.2-61c0-11.8-5.8-17.7-17.4-17.7l-21.4,0.1l0.2,92.1L263.9,105.5z
		 M260.6,24.6c3.7,0,5.5,2.2,5.5,6.7l0.1,59c0,2.7-1.6,4.1-4.9,4.1l-9.2,0L252,24.6L260.6,24.6z"/>
	<path class="st2" d="M341.2,105.3l-0.1-37.2l7.4,0l8.2,37.2l11.7,0l-8.7-38.3c4.9-2.1,7.3-7.2,7.3-15.3L366.9,29
		c0-10.5-4.7-15.8-14.1-15.7l-24.1,0.1l0.2,92.1L341.2,105.3z M349.1,24.4c3.7,0,5.5,2.2,5.5,6.7l0,19.9c0,4.4-1.8,6.7-5.5,6.7
		l-8.1,0L341,24.4L349.1,24.4z"/>
	<path class="st2" d="M106.2,105.9l11.5,0c9.9,0,14.9-5.3,14.8-15.7l-0.2-60.7c0-10.5-5-15.8-14.8-15.7l-11.8,0
		c-9.8,0-14.7,5.3-14.7,15.8l0.2,60.7C91.3,100.7,96.3,105.9,106.2,105.9z M108.8,25l5.8,0c3.7,0,5.5,1.8,5.5,5.4l0.1,59
		c0,3.6-1.6,5.4-4.9,5.4l-6.3,0c-3.7,0-5.5-1.8-5.5-5.4l-0.1-59C103.4,26.8,105.2,25,108.8,25z"/>
</g>
</svg>
