
<svg viewBox="12 7 211 69" version="1.1" xmlns="http://www.w3.org/2000/svg" xmlns:xlink="http://www.w3.org/1999/xlink">
    <!-- Generator: Sketch 41.2 (35397) - http://www.bohemiancoding.com/sketch -->
    <desc>Created with Sketch.</desc>
    <defs></defs>
    <g id="looper-logo-color" stroke="none" stroke-width="1" fill="none" fill-rule="evenodd" transform="translate(12.000000, 7.000000)">
        <g id="Group">
            <polygon id="Shape" fill="#FFFFFF" points="0.334 0.084 9.289 0.084 9.289 43.375 31.304 43.375 31.304 51.695 0.334 51.695 0.334 0.084"></polygon>
            <path d="M119.987,68.157 L111.107,68.157 L111.107,12.33 L117.599,12.33 L118.681,15.241 C120.048,14.495 121.541,13.823 123.159,13.226 C124.552,12.728 126.15,12.268 127.953,11.845 C129.757,11.423 131.703,11.21 133.794,11.21 C135.883,11.21 137.698,11.602 139.241,12.386 C140.783,13.169 142.07,14.401 143.103,16.08 C144.134,17.759 144.906,19.911 145.415,22.536 C145.925,25.161 146.181,28.313 146.181,31.995 C146.181,35.9 145.876,39.184 145.268,41.846 C144.659,44.508 143.752,46.654 142.547,48.283 C141.342,49.912 139.859,51.082 138.095,51.79 C136.33,52.499 134.294,52.854 131.985,52.854 C130.321,52.854 128.761,52.716 127.308,52.443 C125.855,52.17 124.581,51.858 123.489,51.51 C122.222,51.113 121.055,50.664 119.987,50.167 L119.987,68.157 Z M119.987,43.822 C120.707,44.046 121.513,44.232 122.407,44.382 C123.177,44.507 124.088,44.624 125.143,44.736 C126.198,44.847 127.383,44.904 128.699,44.904 C130.312,44.904 131.646,44.749 132.701,44.437 C133.756,44.126 134.588,43.499 135.196,42.553 C135.803,41.608 136.232,40.271 136.48,38.541 C136.728,36.812 136.852,34.543 136.852,31.732 C136.852,29.418 136.759,27.459 136.573,25.854 C136.387,24.249 136.039,22.944 135.531,21.937 C135.022,20.93 134.315,20.202 133.409,19.754 C132.503,19.306 131.343,19.083 129.929,19.083 C128.638,19.083 127.397,19.176 126.204,19.362 C125.014,19.549 123.959,19.741 123.04,19.94 C121.948,20.19 120.931,20.462 119.987,20.761 L119.987,43.822 L119.987,43.822 Z" id="Shape" fill="#FFFFFF"></path>
            <path d="M149.591,31.583 C149.591,27.479 150.125,24.109 151.195,21.472 C152.263,18.835 153.682,16.758 155.449,15.24 C157.215,13.723 159.229,12.672 161.494,12.088 C163.757,11.503 166.083,11.21 168.471,11.21 C171.481,11.21 173.975,11.621 175.952,12.442 C177.93,13.263 179.503,14.414 180.673,15.893 C181.841,17.373 182.662,19.146 183.136,21.21 C183.608,23.275 183.844,25.552 183.844,28.039 C183.844,29.208 183.8,30.415 183.714,31.658 C183.626,32.902 183.508,34.183 183.36,35.501 L158.695,35.501 C158.72,37.268 158.913,38.754 159.274,39.96 C159.634,41.167 160.231,42.149 161.065,42.908 C161.898,43.667 163.004,44.214 164.385,44.55 C165.766,44.886 167.488,45.054 169.553,45.054 C171.294,45.054 172.924,45.01 174.442,44.923 C175.959,44.836 177.29,44.731 178.434,44.606 C179.777,44.482 180.996,44.32 182.091,44.122 L182.091,50.315 C180.821,50.789 179.442,51.211 177.948,51.584 C176.679,51.907 175.199,52.2 173.508,52.462 C171.817,52.723 170.013,52.854 168.098,52.854 C165.162,52.854 162.55,52.486 160.262,51.752 C157.973,51.02 156.04,49.813 154.46,48.133 C152.88,46.453 151.674,44.259 150.84,41.547 C150.007,38.835 149.591,35.515 149.591,31.583 Z M175.673,28.86 L175.673,27.437 C175.673,25.938 175.579,24.634 175.393,23.523 C175.206,22.412 174.827,21.495 174.254,20.771 C173.682,20.046 172.873,19.511 171.829,19.16 C170.784,18.811 169.391,18.636 167.649,18.636 C165.784,18.636 164.259,18.855 163.079,19.291 C161.897,19.729 160.977,20.377 160.318,21.238 C159.659,22.1 159.211,23.167 158.974,24.441 C158.738,25.713 158.62,27.188 158.62,28.86 L175.673,28.86 L175.673,28.86 Z" id="Shape" fill="#FFFFFF"></path>
            <path d="M187.253,12.33 L194.934,12.33 L195.459,16.622 C197.401,15.353 199.579,14.309 201.992,13.488 C204.404,12.667 207.115,12.182 210.126,12.032 L210.051,21.211 C206.942,21.262 204.249,21.417 201.973,21.678 C199.698,21.939 197.75,22.393 196.134,23.04 L196.134,51.696 L187.253,51.696 L187.253,12.33 Z" id="Shape" fill="#FFFFFF"></path>
            <path d="M106.616,23.132 C105.894,20.557 104.775,18.387 103.258,16.621 C101.741,14.855 99.807,13.512 97.456,12.591 C95.105,11.671 92.3,11.21 89.041,11.21 C85.782,11.21 82.984,11.671 80.646,12.591 C79.198,13.161 77.925,13.913 76.787,14.806 C76.672,14.878 76.557,14.96 76.444,15.062 C76.4,15.102 76.358,15.14 76.315,15.179 C76.132,15.336 75.955,15.5 75.781,15.666 C73.994,17.309 72.663,18.74 70.405,22.671 C68.078,18.621 66.736,17.225 64.866,15.516 C64.777,15.433 64.688,15.351 64.597,15.271 C64.521,15.202 64.444,15.132 64.366,15.062 C64.237,14.945 64.106,14.855 63.973,14.777 C62.846,13.896 61.582,13.154 60.143,12.59 C57.792,11.67 54.987,11.209 51.728,11.209 C48.469,11.209 45.671,11.67 43.332,12.59 C40.993,13.511 39.06,14.854 37.53,16.62 C36,18.387 34.875,20.556 34.154,23.131 C33.432,25.705 33.072,28.66 33.072,31.993 C33.072,35.326 33.432,38.293 34.154,40.891 C34.875,43.492 36.001,45.674 37.53,47.44 C39.06,49.207 40.993,50.55 43.332,51.47 C45.67,52.39 48.469,52.851 51.728,52.851 C54.986,52.851 57.792,52.39 60.143,51.47 C61.03,51.122 61.838,50.696 62.607,50.228 C62.609,50.236 62.619,50.254 62.62,50.259 C65.983,48.27 68.073,45.046 70.405,40.485 C72.557,44.694 74.509,47.758 77.438,49.77 C77.443,49.773 77.448,49.776 77.453,49.78 C77.694,49.945 77.935,50.109 78.19,50.259 C78.191,50.255 78.199,50.239 78.201,50.235 C78.965,50.7 79.767,51.125 80.646,51.47 C82.984,52.39 85.782,52.851 89.041,52.851 C92.299,52.851 95.105,52.39 97.456,51.47 C99.807,50.55 101.741,49.206 103.258,47.44 C104.775,45.674 105.895,43.492 106.616,40.891 C107.337,38.292 107.698,35.326 107.698,31.993 C107.698,28.66 107.337,25.707 106.616,23.132 Z M64.446,33.86 C60.666,40.722 58.58,42.946 58.58,42.946 L58.548,42.946 C57.982,43.57 57.309,44.088 56.505,44.473 C55.286,45.059 53.693,45.351 51.729,45.351 C49.789,45.351 48.209,45.059 46.99,44.473 C45.771,43.888 44.819,43.029 44.136,41.895 C43.451,40.761 42.991,39.368 42.756,37.71 C42.519,36.054 42.401,34.142 42.401,31.974 C42.401,29.832 42.519,27.933 42.756,26.276 C42.992,24.62 43.452,23.225 44.136,22.091 C44.82,20.958 45.771,20.099 46.99,19.513 C48.209,18.927 49.788,18.635 51.729,18.635 C53.694,18.635 55.286,18.927 56.505,19.513 C56.844,19.676 57.157,19.865 57.453,20.07 L57.461,20.07 C57.461,20.07 61.054,21.845 65.855,31.279 L65.854,31.281 L65.858,31.28 L69.573,38.646 L64.446,33.86 Z M98.016,37.711 C97.779,39.368 97.326,40.762 96.653,41.896 C95.982,43.03 95.036,43.889 93.818,44.474 C92.599,45.06 91.006,45.352 89.042,45.352 C87.102,45.352 85.522,45.06 84.303,44.474 C83.499,44.088 82.823,43.571 82.251,42.947 L82.232,42.947 C82.232,42.947 79.248,39.371 74.956,31.281 L74.953,31.282 L71.366,24.315 L76.3,28.78 C80.634,20.863 83.351,20.072 83.351,20.072 L83.354,20.072 C83.652,19.867 83.965,19.677 84.304,19.515 C85.523,18.929 87.102,18.637 89.043,18.637 C91.008,18.637 92.6,18.929 93.819,19.515 C95.038,20.1 95.984,20.96 96.654,22.093 C97.326,23.227 97.779,24.621 98.017,26.278 C98.252,27.935 98.371,29.835 98.371,31.976 C98.37,34.143 98.251,36.055 98.016,37.711 Z" id="Shape" fill="#39B5FD"></path>
        </g>
    </g>
</svg>
